<svg width="28" height="28" viewBox="0 0 28 28" fill="none" xmlns="http://www.w3.org/2000/svg">
<path fill-rule="evenodd" clip-rule="evenodd" d="M10.1281 13.706C4.77137 15.3597 0.875 20.3534 0.875 26.25C0.875 26.4821 0.967187 26.7046 1.13128 26.8687C1.29538 27.0328 1.51794 27.125 1.75 27.125C1.98206 27.125 2.20462 27.0328 2.36872 26.8687C2.53281 26.7046 2.625 26.4821 2.625 26.25C2.625 19.9719 7.72187 14.875 14 14.875C20.2781 14.875 25.375 19.9719 25.375 26.25C25.375 26.4821 25.4672 26.7046 25.6313 26.8687C25.7954 27.0328 26.0179 27.125 26.25 27.125C26.4821 27.125 26.7046 27.0328 26.8687 26.8687C27.0328 26.7046 27.125 26.4821 27.125 26.25C27.125 20.3534 23.2286 15.3597 17.8719 13.706C18.834 13.0677 19.6232 12.2012 20.1691 11.1838C20.7149 10.1663 21.0004 9.02961 21 7.875C21 4.01188 17.8631 0.875 14 0.875C10.1369 0.875 7 4.01188 7 7.875C6.99965 9.02961 7.28512 10.1663 7.83094 11.1838C8.37677 12.2012 9.16597 13.0677 10.1281 13.706ZM14 2.625C16.8971 2.625 19.25 4.97787 19.25 7.875C19.25 10.7721 16.8971 13.125 14 13.125C11.1029 13.125 8.75 10.7721 8.75 7.875C8.75 4.97787 11.1029 2.625 14 2.625Z" fill="black"/>
</svg>
