<svg width="29" height="29" viewBox="0 0 29 29" fill="none" xmlns="http://www.w3.org/2000/svg">
<path d="M24.4688 23.5625H4.53125C3.81019 23.5625 3.11867 23.2761 2.6088 22.7662C2.09894 22.2563 1.8125 21.5648 1.8125 20.8438V8.15625C1.8125 7.43519 2.09894 6.74367 2.6088 6.2338C3.11867 5.72394 3.81019 5.4375 4.53125 5.4375H24.4688C25.1898 5.4375 25.8813 5.72394 26.3912 6.2338C26.9011 6.74367 27.1875 7.43519 27.1875 8.15625V20.8438C27.1875 21.5648 26.9011 22.2563 26.3912 22.7662C25.8813 23.2761 25.1898 23.5625 24.4688 23.5625ZM4.53125 7.25C4.2909 7.25 4.06039 7.34548 3.89043 7.51543C3.72048 7.68539 3.625 7.9159 3.625 8.15625V20.8438C3.625 21.0841 3.72048 21.3146 3.89043 21.4846C4.06039 21.6545 4.2909 21.75 4.53125 21.75H24.4688C24.7091 21.75 24.9396 21.6545 25.1096 21.4846C25.2795 21.3146 25.375 21.0841 25.375 20.8438V8.15625C25.375 7.9159 25.2795 7.68539 25.1096 7.51543C24.9396 7.34548 24.7091 7.25 24.4688 7.25H4.53125Z" fill="#231F20"/>
<path d="M14.5 15.4062C14.3224 15.4049 14.149 15.3513 14.0016 15.2522L3.12658 8.00218C2.95073 7.86054 2.83409 7.65834 2.79951 7.4352C2.76493 7.21206 2.8149 6.98405 2.93963 6.79582C3.06436 6.6076 3.25486 6.47271 3.47383 6.41759C3.69281 6.36246 3.92447 6.39107 4.12345 6.49781L14.9985 13.7478C15.1592 13.8558 15.2811 14.0124 15.3463 14.1947C15.4115 14.377 15.4166 14.5754 15.3609 14.7609C15.3052 14.9463 15.1915 15.109 15.0366 15.2251C14.8817 15.3413 14.6936 15.4048 14.5 15.4062Z" fill="#231F20"/>
<path d="M14.5 15.4062C14.3056 15.4067 14.1162 15.3446 13.9598 15.2292C13.8034 15.1137 13.6882 14.9511 13.6313 14.7652C13.5745 14.5793 13.5789 14.38 13.6439 14.1969C13.7089 14.0137 13.8311 13.8562 13.9925 13.7478L24.8675 6.4978C25.0669 6.37992 25.3039 6.34287 25.5297 6.39427C25.7556 6.44567 25.9532 6.58161 26.082 6.77418C26.2108 6.96675 26.2609 7.20132 26.2221 7.4297C26.1833 7.65808 26.0585 7.86293 25.8734 8.00218L14.9984 15.2522C14.8509 15.3513 14.6776 15.4049 14.5 15.4062Z" fill="#231F20"/>
</svg>
