<svg width="29" height="28" viewBox="0 0 29 28" fill="none" xmlns="http://www.w3.org/2000/svg">
<path d="M2.2356 14C2.2356 13.4477 2.68331 13 3.2356 13H25.2356C25.7879 13 26.2356 13.4477 26.2356 14C26.2356 14.5523 25.7879 15 25.2356 15H3.2356C2.68331 15 2.2356 14.5523 2.2356 14Z" fill="#DFB259"/>
<path d="M2.2356 8C2.2356 7.44772 2.68331 7 3.2356 7H25.2356C25.7879 7 26.2356 7.44772 26.2356 8C26.2356 8.55228 25.7879 9 25.2356 9H3.2356C2.68331 9 2.2356 8.55228 2.2356 8Z" fill="#DFB259"/>
<path d="M2.2356 20C2.2356 19.4477 2.68331 19 3.2356 19H25.2356C25.7879 19 26.2356 19.4477 26.2356 20C26.2356 20.5523 25.7879 21 25.2356 21H3.2356C2.68331 21 2.2356 20.5523 2.2356 20Z" fill="#DFB259"/>
</svg>
