<svg width="28" height="28" viewBox="0 0 28 28" fill="none" xmlns="http://www.w3.org/2000/svg">
<path d="M2 14C2 13.4477 2.44772 13 3 13H25C25.5523 13 26 13.4477 26 14C26 14.5523 25.5523 15 25 15H3C2.44772 15 2 14.5523 2 14Z" fill="black"/>
<path d="M2 8C2 7.44772 2.44772 7 3 7H25C25.5523 7 26 7.44772 26 8C26 8.55228 25.5523 9 25 9H3C2.44772 9 2 8.55228 2 8Z" fill="black"/>
<path d="M2 20C2 19.4477 2.44772 19 3 19H25C25.5523 19 26 19.4477 26 20C26 20.5523 25.5523 21 25 21H3C2.44772 21 2 20.5523 2 20Z" fill="black"/>
</svg>
