<svg width="25" height="14" viewBox="0 0 25 14" fill="none" xmlns="http://www.w3.org/2000/svg">
<path d="M0.764648 6.98671C0.764648 7.25193 0.870005 7.50628 1.05754 7.69382C1.24508 7.88135 1.49943 7.98671 1.76465 7.98671H21.3506L17.0586 12.2787C16.8765 12.4673 16.7757 12.7199 16.778 12.9821C16.7803 13.2443 16.8854 13.4951 17.0708 13.6805C17.2562 13.8659 17.507 13.9711 17.7692 13.9734C18.0314 13.9757 18.284 13.8749 18.4726 13.6927L24.4726 7.69271C24.5652 7.60072 24.6386 7.49134 24.6887 7.37086C24.7388 7.25039 24.7646 7.12119 24.7646 6.99071V6.98671C24.7646 6.85671 24.7386 6.72671 24.6866 6.60471C24.6368 6.48348 24.5634 6.37335 24.4706 6.28071L18.4706 0.280712C18.282 0.0985537 18.0294 -0.00224062 17.7672 3.78026e-05C17.5051 0.00231622 17.2542 0.107485 17.0688 0.292893C16.8834 0.478301 16.7783 0.729114 16.776 0.991311C16.7737 1.25351 16.8745 1.50611 17.0566 1.69471L21.3506 5.98671H1.76465C1.49943 5.98671 1.24508 6.09207 1.05754 6.27961C0.870005 6.46714 0.764648 6.7215 0.764648 6.98671Z" fill="#A7A7A7"/>
</svg>
