<svg width="20" height="18" viewBox="0 0 20 18" fill="none" xmlns="http://www.w3.org/2000/svg">
<path fill-rule="evenodd" clip-rule="evenodd" d="M18.2622 9.38746V9.38442C18.7617 8.86174 19.1546 8.2462 19.4183 7.57218C19.6973 6.85912 19.8257 6.09605 19.7955 5.33096C19.7652 4.56587 19.577 3.8153 19.2427 3.12647C18.9083 2.43764 18.435 1.82545 17.8526 1.32839C17.2702 0.831337 16.5912 0.460168 15.8584 0.238239C15.1256 0.0163088 14.3548 -0.0515852 13.5944 0.0388278C12.8341 0.129241 12.1007 0.376003 11.4404 0.763597C10.8936 1.08451 10.4068 1.49621 10.0002 1.98015C9.5937 1.49621 9.10684 1.08451 8.5601 0.763597C7.89976 0.376003 7.16636 0.129241 6.40603 0.0388278C5.64569 -0.0515852 4.87488 0.0163088 4.14206 0.238239C3.40923 0.460168 2.73026 0.831337 2.14784 1.32839C1.56542 1.82545 1.09214 2.43764 0.757789 3.12647C0.423434 3.8153 0.235228 4.56587 0.205008 5.33096C0.174788 6.09605 0.303208 6.85912 0.582192 7.57218C0.861175 8.28523 1.28471 8.93287 1.82611 9.47432L10.0002 17.6474L18.2622 9.38746ZM3.04423 8.42892L10.0002 15.3859L17.0441 8.34007C17.4422 7.94185 17.7506 7.46312 17.9485 6.93597C18.1465 6.40882 18.2294 5.84544 18.1918 5.2836C18.1542 4.72177 17.9969 4.17447 17.7305 3.67839C17.4641 3.18232 17.0947 2.74895 16.647 2.40733C16.1994 2.06571 15.6839 1.82375 15.1351 1.69766C14.5863 1.57157 14.0169 1.56427 13.4651 1.67626C12.9132 1.78824 12.3917 2.01692 11.9355 2.34696C11.4792 2.67699 11.0989 3.10076 10.8198 3.58984L10.7335 3.74117H9.267L9.18066 3.58984C8.90161 3.10076 8.52121 2.67699 8.06498 2.34696C7.60875 2.01692 7.08722 1.78824 6.53538 1.67626C5.98354 1.56427 5.41413 1.57157 4.86534 1.69766C4.31654 1.82375 3.80105 2.06571 3.35343 2.40733C2.9058 2.74895 2.53639 3.18232 2.26996 3.67839C2.00353 4.17447 1.84624 4.72177 1.80864 5.2836C1.77104 5.84544 1.854 6.40882 2.05195 6.93597C2.2499 7.46312 2.55828 7.94185 2.95639 8.34007L3.04423 8.42892Z" fill="#403D35"/>
</svg>
