<svg width="29" height="29" viewBox="0 0 29 29" fill="none" xmlns="http://www.w3.org/2000/svg">
<path d="M20.666 27.021C19.6368 27.0214 18.6254 26.7528 17.732 26.242L17.606 26.171C11.7972 22.8482 6.93742 18.0914 3.491 12.355L2.834 11.26C2.1611 10.1405 1.88226 8.82805 2.04192 7.5317C2.20159 6.23535 2.79057 5.02974 3.715 4.10701L5.024 2.79801C6.124 1.69801 7.913 1.69801 9.012 2.79801L11.896 5.68201C12.33 6.11809 12.6101 6.68374 12.6939 7.29328C12.7776 7.90282 12.6604 8.52305 12.36 9.06001L11.276 10.985C11.2532 11.0255 11.2443 11.0724 11.2506 11.1184C11.2569 11.1644 11.2782 11.2071 11.311 11.24L17.732 17.661C17.7654 17.6937 17.8085 17.7147 17.8548 17.7208C17.9012 17.727 17.9483 17.7179 17.989 17.695L19.911 16.612L19.912 16.611C20.4491 16.311 21.0692 16.1939 21.6787 16.2777C22.2881 16.3614 22.8537 16.6413 23.29 17.075L26.175 19.961C27.275 21.061 27.275 22.85 26.175 23.949L24.808 25.315C24.2636 25.8576 23.6175 26.2876 22.9068 26.5803C22.1961 26.8731 21.4346 27.0228 20.666 27.021ZM7.018 3.97301C6.808 3.97301 6.598 4.05301 6.438 4.21301L5.129 5.52101C4.52057 6.12834 4.13292 6.92184 4.02781 7.77507C3.92269 8.6283 4.10617 9.49216 4.549 10.229L5.206 11.324C8.47515 16.7657 13.0849 21.2784 18.595 24.431L18.721 24.502C20.247 25.375 22.167 25.128 23.393 23.9L24.76 22.534C24.8362 22.4579 24.8966 22.3674 24.9379 22.2679C24.9791 22.1684 25.0003 22.0617 25.0003 21.954C25.0003 21.8463 24.9791 21.7396 24.9379 21.6401C24.8966 21.5406 24.8362 21.4502 24.76 21.374L21.875 18.488C21.748 18.3618 21.5834 18.2804 21.406 18.2562C21.2286 18.2321 21.0481 18.2664 20.892 18.354L18.97 19.437C18.5486 19.6729 18.0617 19.7652 17.5832 19.6997C17.1047 19.6342 16.6605 19.4145 16.318 19.074L9.897 12.653C9.55614 12.3109 9.33625 11.8669 9.27073 11.3884C9.20521 10.9099 9.29765 10.4232 9.534 10.002L10.618 8.07801C10.7051 7.92184 10.739 7.74158 10.7147 7.56444C10.6903 7.38729 10.609 7.22288 10.483 7.09601L7.598 4.21301C7.52189 4.13679 7.43147 4.07635 7.33194 4.03516C7.23241 3.99397 7.12572 3.97285 7.018 3.97301Z" fill="black"/>
</svg>
